<svg width="128" height="145" viewBox="0 0 128 145" fill="none" xmlns="http://www.w3.org/2000/svg">
<path d="M24.0308 38.4804V42.7324C24.6313 64.2112 34.0029 95.969 52.2509 89.2346C71.7484 82.0391 87.526 32.6983 95.8637 7L24.0308 38.4804Z" fill="#1791CF"/>
<path d="M24.0308 122H103.56C103.56 122 106.767 30.1285 95.8637 7C87.526 32.6983 71.7484 82.0391 52.2509 89.2346C34.0029 95.969 24.6313 64.2112 24.0308 42.7324V122Z" fill="url(#paint0_linear_93_79)"/>
<path d="M24 97.5H104C116.979 97.5 127.5 108.021 127.5 121V144.5H0.5V121C0.5 108.021 11.0213 97.5 24 97.5Z" fill="white" stroke="#0D0D0C"/>
<path d="M18.256 132C18.256 132 18.1173 132 17.84 132C17.584 132.021 17.2747 131.989 16.912 131.904C16.5707 131.819 16.2507 131.648 15.952 131.392C15.6747 131.115 15.504 130.699 15.44 130.144C15.3973 129.696 15.344 129.099 15.28 128.352C15.2373 127.605 15.184 126.816 15.12 125.984C15.056 125.131 15.0027 124.331 14.96 123.584C14.9173 122.837 14.8747 122.229 14.832 121.76C14.8107 121.269 14.8 121.024 14.8 121.024C14.8 121.024 14.7893 120.928 14.768 120.736C14.768 120.544 14.8107 120.32 14.896 120.064C15.0027 119.787 15.2053 119.541 15.504 119.328C15.8027 119.115 16.272 118.997 16.912 118.976C17.7653 118.933 18.3947 118.987 18.8 119.136C19.2053 119.285 19.472 119.445 19.6 119.616C19.7493 119.787 19.824 119.872 19.824 119.872C19.824 119.872 19.984 119.787 20.304 119.616C20.6453 119.445 21.104 119.285 21.68 119.136C22.256 118.965 22.896 118.88 23.6 118.88C24.4107 118.88 25.072 118.965 25.584 119.136C26.1173 119.307 26.512 119.477 26.768 119.648C27.024 119.819 27.152 119.904 27.152 119.904C27.7707 119.52 28.4 119.296 29.04 119.232C29.7013 119.168 30.448 119.136 31.28 119.136C31.28 119.136 31.4933 119.168 31.92 119.232C32.3467 119.275 32.88 119.403 33.52 119.616C34.16 119.829 34.8 120.181 35.44 120.672C36.1013 121.141 36.656 121.803 37.104 122.656C37.552 123.488 37.7867 124.565 37.808 125.888C37.8507 127.552 37.808 128.811 37.68 129.664C37.552 130.517 37.3707 131.104 37.136 131.424C36.9013 131.744 36.6133 131.925 36.272 131.968C35.9307 131.989 35.5573 132 35.152 132C34.3413 132 33.648 131.829 33.072 131.488C32.5173 131.125 32.304 130.581 32.432 129.856C32.4747 129.579 32.5067 129.131 32.528 128.512C32.5707 127.893 32.5707 127.221 32.528 126.496C32.4853 125.749 32.3893 125.045 32.24 124.384C32.0907 123.701 31.8667 123.147 31.568 122.72C31.2693 122.272 30.8747 122.059 30.384 122.08C30.0213 122.08 29.7333 122.229 29.52 122.528C29.328 122.805 29.1893 123.083 29.104 123.36C29.0187 123.637 28.976 123.776 28.976 123.776L29.392 129.856C29.392 129.856 29.392 129.963 29.392 130.176C29.4133 130.389 29.3707 130.645 29.264 130.944C29.1573 131.221 28.9227 131.467 28.56 131.68C28.1973 131.893 27.632 132 26.864 132C26.096 132 25.5093 131.904 25.104 131.712C24.72 131.52 24.4533 131.296 24.304 131.04C24.1547 130.784 24.0693 130.56 24.048 130.368C24.0267 130.176 24.016 130.069 24.016 130.048C24.016 130.027 24.0267 129.813 24.048 129.408C24.0693 128.981 24.08 128.448 24.08 127.808C24.1013 127.168 24.08 126.496 24.016 125.792C23.952 125.067 23.8347 124.395 23.664 123.776C23.5147 123.136 23.28 122.645 22.96 122.304C22.6613 121.941 22.256 121.792 21.744 121.856C21.2533 121.92 20.9013 122.08 20.688 122.336C20.4747 122.571 20.336 122.795 20.272 123.008C20.2293 123.221 20.208 123.328 20.208 123.328L20.72 130.08C20.72 130.08 20.72 130.176 20.72 130.368C20.7413 130.56 20.688 130.784 20.56 131.04C20.4533 131.296 20.2187 131.52 19.856 131.712C19.5147 131.904 18.9813 132 18.256 132ZM45.7938 118.784C46.8604 118.763 47.7671 118.859 48.5138 119.072C49.2604 119.264 49.8791 119.499 50.3698 119.776C50.8604 120.053 51.2444 120.299 51.5218 120.512C51.7991 120.725 52.0018 120.832 52.1298 120.832C52.3644 120.853 52.5351 120.971 52.6418 121.184C52.7484 121.376 52.8018 121.472 52.8018 121.472C52.8018 121.472 52.8338 121.685 52.8978 122.112C52.9618 122.539 53.0364 123.083 53.1218 123.744C53.2284 124.405 53.3244 125.099 53.4098 125.824C53.4951 126.549 53.5698 127.232 53.6338 127.872C53.6978 128.512 53.7298 129.013 53.7298 129.376C53.7298 129.973 53.6871 130.453 53.6018 130.816C53.5378 131.179 53.3244 131.456 52.9618 131.648C52.5991 131.819 52.0018 131.936 51.1698 132C50.5511 132.043 50.1031 132.032 49.8258 131.968C49.5484 131.904 49.3778 131.829 49.3138 131.744C49.2498 131.659 49.2178 131.616 49.2178 131.616C49.0258 131.765 48.7058 131.872 48.2578 131.936C47.8311 131.979 47.4258 132 47.0417 132C46.6578 132 46.4658 132 46.4658 132C46.4658 132 46.2204 131.968 45.7298 131.904C45.2391 131.819 44.6311 131.659 43.9058 131.424C43.2018 131.168 42.4871 130.795 41.7618 130.304C41.0578 129.792 40.4711 129.12 40.0018 128.288C39.5324 127.435 39.3084 126.379 39.3298 125.12C39.3511 123.861 39.5858 122.837 40.0338 122.048C40.4818 121.237 41.0258 120.608 41.6658 120.16C42.3058 119.712 42.9351 119.392 43.5538 119.2C44.1938 119.008 44.7271 118.891 45.1538 118.848C45.5804 118.805 45.7938 118.784 45.7938 118.784ZM48.1938 122.08C48.0871 121.931 47.8524 121.771 47.4898 121.6C47.1484 121.408 46.8178 121.248 46.4978 121.12C46.1991 120.992 46.0498 120.949 46.0498 120.992C46.0498 121.013 45.9324 121.195 45.6978 121.536C45.4844 121.856 45.2604 122.336 45.0258 122.976C44.8124 123.595 44.6951 124.341 44.6738 125.216C44.6524 126.091 44.7698 126.848 45.0258 127.488C45.2818 128.128 45.5911 128.619 45.9538 128.96C46.3378 129.301 46.6898 129.472 47.0098 129.472C47.2444 129.472 47.4684 129.365 47.6818 129.152C47.8951 128.917 48.0764 128.661 48.2258 128.384C48.3751 128.085 48.4924 127.829 48.5778 127.616C48.6631 127.403 48.7058 127.296 48.7058 127.296L48.1938 122.08ZM56.5175 129.824C56.5175 129.589 56.4855 129.184 56.4215 128.608C56.3575 128.032 56.2722 127.381 56.1655 126.656C56.0802 125.909 55.9842 125.173 55.8775 124.448C55.7708 123.701 55.6535 123.04 55.5255 122.464C55.4188 121.867 55.3228 121.44 55.2375 121.184C55.0242 120.544 55.1415 120.096 55.5895 119.84C56.0588 119.563 56.7095 119.381 57.5415 119.296C58.3735 119.211 58.9708 119.275 59.3335 119.488C59.7175 119.68 59.9095 119.776 59.9095 119.776C60.2295 119.456 60.7522 119.232 61.4775 119.104C62.2242 118.976 63.0028 118.923 63.8135 118.944C64.8588 118.965 65.6162 119.125 66.0855 119.424C66.5548 119.723 66.7895 120.043 66.7895 120.384C66.7895 120.64 66.7575 120.832 66.6935 120.96C66.6295 121.088 66.3735 121.216 65.9255 121.344C65.4988 121.451 64.7202 121.643 63.5895 121.92C62.9282 122.069 62.4375 122.432 62.1175 123.008C61.7975 123.563 61.5948 124.213 61.5095 124.96C61.4455 125.685 61.4455 126.411 61.5095 127.136C61.5735 127.84 61.6482 128.437 61.7335 128.928C61.8188 129.397 61.8615 129.653 61.8615 129.696C61.8615 129.739 61.8722 129.888 61.8935 130.144C61.9362 130.379 61.9042 130.645 61.7975 130.944C61.7122 131.221 61.4882 131.467 61.1255 131.68C60.7628 131.893 60.1868 132 59.3975 132C58.6082 132 58.0108 131.893 57.6055 131.68C57.2002 131.445 56.9228 131.189 56.7735 130.912C56.6242 130.635 56.5388 130.389 56.5175 130.176C56.5175 129.941 56.5175 129.824 56.5175 129.824ZM69.804 130.304C69.804 130.304 69.7827 130.101 69.74 129.696C69.6973 129.269 69.6333 128.725 69.548 128.064C69.4627 127.381 69.356 126.656 69.228 125.888C69.1213 125.12 68.9933 124.384 68.844 123.68C68.6947 122.955 68.5347 122.336 68.364 121.824C68.1507 121.184 68.1187 120.704 68.268 120.384C68.4173 120.043 68.6413 119.808 68.94 119.68C69.26 119.552 69.548 119.488 69.804 119.488C70.0813 119.467 70.22 119.456 70.22 119.456C70.22 119.456 70.3693 119.456 70.668 119.456C70.9667 119.435 71.3187 119.467 71.724 119.552C72.1293 119.637 72.5027 119.808 72.844 120.064C73.1853 120.32 73.3987 120.725 73.484 121.28C73.612 122.005 73.6973 122.464 73.74 122.656C73.7827 122.848 73.804 122.923 73.804 122.88C73.8253 122.816 73.836 122.784 73.836 122.784L77.452 119.488C77.452 119.488 77.5693 119.403 77.804 119.232C78.06 119.04 78.4547 118.901 78.988 118.816C79.5427 118.709 80.2573 118.784 81.132 119.04C81.7507 119.211 82.1027 119.435 82.188 119.712C82.2947 119.989 82.2627 120.245 82.092 120.48C81.9427 120.715 81.8147 120.885 81.708 120.992C81.644 121.056 81.452 121.248 81.132 121.568C80.812 121.867 80.428 122.229 79.98 122.656C79.5533 123.061 79.1267 123.467 78.7 123.872C78.2733 124.277 77.9213 124.619 77.644 124.896C77.3667 125.173 77.228 125.312 77.228 125.312L82.38 128.896C82.38 128.896 82.476 128.981 82.668 129.152C82.8813 129.301 83.0733 129.504 83.244 129.76C83.4147 130.016 83.468 130.293 83.404 130.592C83.3613 130.869 83.0733 131.136 82.54 131.392C82.0067 131.648 81.484 131.755 80.972 131.712C80.4813 131.648 80.0333 131.52 79.628 131.328C79.244 131.136 78.9347 130.955 78.7 130.784C78.4653 130.613 78.348 130.528 78.348 130.528L74.7 128L74.924 130.624C74.924 130.624 74.9027 130.741 74.86 130.976C74.8173 131.189 74.6253 131.413 74.284 131.648C73.964 131.883 73.388 132 72.556 132C71.724 132 71.116 131.861 70.732 131.584C70.348 131.285 70.092 130.997 69.964 130.72C69.8573 130.443 69.804 130.304 69.804 130.304ZM97.7875 122.336C97.7235 123.403 97.4248 124.267 96.8915 124.928C96.3582 125.568 95.7075 126.059 94.9395 126.4C94.1928 126.72 93.4462 126.944 92.6995 127.072C91.9528 127.179 91.3235 127.232 90.8115 127.232C90.3208 127.232 90.0755 127.232 90.0755 127.232C90.2035 127.979 90.3848 128.512 90.6195 128.832C90.8542 129.152 91.1102 129.333 91.3875 129.376C91.6862 129.419 91.9635 129.397 92.2195 129.312C92.4755 129.205 92.6782 129.088 92.8275 128.96C92.9982 128.832 93.0835 128.768 93.0835 128.768C93.0835 128.768 93.2008 128.672 93.4355 128.48C93.6702 128.288 94.0328 128.107 94.5235 127.936C95.0355 127.744 95.6755 127.648 96.4435 127.648C97.3182 127.648 97.9048 127.765 98.2035 128C98.5235 128.213 98.6728 128.469 98.6515 128.768C98.6515 129.045 98.5875 129.301 98.4595 129.536C98.3528 129.749 98.2995 129.856 98.2995 129.856C98.2995 129.856 98.2035 129.963 98.0115 130.176C97.8408 130.368 97.5208 130.603 97.0515 130.88C96.5822 131.157 95.9315 131.413 95.0995 131.648C94.2675 131.861 93.2008 131.979 91.8995 132C90.6408 132.021 89.5848 131.851 88.7315 131.488C87.8782 131.125 87.1742 130.656 86.6195 130.08C86.0648 129.483 85.6382 128.864 85.3395 128.224C85.0622 127.563 84.8595 126.955 84.7315 126.4C84.6248 125.824 84.5715 125.376 84.5715 125.056C84.5715 124.736 84.5928 124.32 84.6355 123.808C84.6995 123.296 84.8382 122.763 85.0515 122.208C85.2862 121.632 85.6382 121.088 86.1075 120.576C86.5768 120.064 87.2168 119.648 88.0275 119.328C88.8595 119.008 89.9155 118.837 91.1955 118.816C92.7955 118.795 94.0435 118.933 94.9395 119.232C95.8355 119.531 96.4862 119.893 96.8915 120.32C97.2968 120.747 97.5422 121.152 97.6275 121.536C97.7342 121.92 97.7875 122.187 97.7875 122.336ZM89.6275 125.024C90.9288 124.917 91.8995 124.64 92.5395 124.192C93.1795 123.744 93.5528 123.243 93.6595 122.688C93.7662 122.133 93.6595 121.664 93.3395 121.28C93.0408 120.875 92.5822 120.693 91.9635 120.736C91.3448 120.757 90.8755 120.992 90.5555 121.44C90.2355 121.867 90.0115 122.368 89.8835 122.944C89.7555 123.499 89.6808 123.989 89.6595 124.416C89.6382 124.821 89.6275 125.024 89.6275 125.024ZM101.674 129.824C101.674 129.589 101.642 129.184 101.578 128.608C101.514 128.032 101.428 127.381 101.322 126.656C101.236 125.909 101.14 125.173 101.034 124.448C100.927 123.701 100.81 123.04 100.682 122.464C100.575 121.867 100.479 121.44 100.394 121.184C100.18 120.544 100.298 120.096 100.746 119.84C101.215 119.563 101.866 119.381 102.698 119.296C103.53 119.211 104.127 119.275 104.49 119.488C104.874 119.68 105.066 119.776 105.066 119.776C105.386 119.456 105.908 119.232 106.634 119.104C107.38 118.976 108.159 118.923 108.97 118.944C110.015 118.965 110.772 119.125 111.242 119.424C111.711 119.723 111.946 120.043 111.946 120.384C111.946 120.64 111.914 120.832 111.85 120.96C111.786 121.088 111.53 121.216 111.082 121.344C110.655 121.451 109.876 121.643 108.746 121.92C108.084 122.069 107.594 122.432 107.274 123.008C106.954 123.563 106.751 124.213 106.666 124.96C106.602 125.685 106.602 126.411 106.666 127.136C106.73 127.84 106.804 128.437 106.89 128.928C106.975 129.397 107.018 129.653 107.018 129.696C107.018 129.739 107.028 129.888 107.05 130.144C107.092 130.379 107.06 130.645 106.954 130.944C106.868 131.221 106.644 131.467 106.282 131.68C105.919 131.893 105.343 132 104.554 132C103.764 132 103.167 131.893 102.762 131.68C102.356 131.445 102.079 131.189 101.93 130.912C101.78 130.635 101.695 130.389 101.674 130.176C101.674 129.941 101.674 129.824 101.674 129.824Z" fill="#0D0D0C"/>
<defs>
<linearGradient id="paint0_linear_93_79" x1="24" y1="122" x2="104" y2="122" gradientUnits="userSpaceOnUse">
<stop stop-color="#30ABE8"/>
<stop offset="0.395" stop-color="#47B4EB"/>
<stop offset="1" stop-color="#30ABE8"/>
</linearGradient>
</defs>
</svg>
